<svg width="12" height="14" viewBox="0 0 12 14" fill="none" xmlns="http://www.w3.org/2000/svg">
    <path fill-rule="evenodd" clip-rule="evenodd" d="M5.64187 0.706221C5.85252 0.542384 6.14749 0.542384 6.35814 0.706221L11.6081 4.78955C11.7502 4.90007 11.8333 5.07 11.8333 5.25001V11.6667C11.8333 12.1308 11.649 12.5759 11.3208 12.9041C10.9926 13.2323 10.5475 13.4167 10.0833 13.4167H1.91667C1.45254 13.4167 1.00742 13.2323 0.679235 12.9041C0.351046 12.5759 0.166672 12.1308 0.166672 11.6667V5.25001C0.166672 5.07 0.249781 4.90007 0.391873 4.78955L5.64187 0.706221ZM1.33334 5.53531V11.6667C1.33334 11.8214 1.3948 11.9698 1.50419 12.0792C1.61359 12.1886 1.76196 12.25 1.91667 12.25H10.0833C10.238 12.25 10.3864 12.1886 10.4958 12.0792C10.6052 11.9698 10.6667 11.8214 10.6667 11.6667V5.53531L6.00001 1.90568L1.33334 5.53531Z" fill="white"/>
    <path fill-rule="evenodd" clip-rule="evenodd" d="M3.66667 7.00001C3.66667 6.67784 3.92784 6.41668 4.25001 6.41668H7.75001C8.07217 6.41668 8.33334 6.67784 8.33334 7.00001V12.8333C8.33334 13.1555 8.07217 13.4167 7.75001 13.4167C7.42784 13.4167 7.16667 13.1555 7.16667 12.8333V7.58334H4.83334V12.8333C4.83334 13.1555 4.57217 13.4167 4.25001 13.4167C3.92784 13.4167 3.66667 13.1555 3.66667 12.8333V7.00001Z" fill="white"/>
</svg>
