<svg width="18" height="14" viewBox="0 0 18 14" fill="none" xmlns="http://www.w3.org/2000/svg">
    <path d="M15.6667 0.560547H2.33335C1.41669 0.560547 0.67502 1.30345 0.67502 2.21144L0.666687 12.1168C0.666687 13.0248 1.41669 13.7677 2.33335 13.7677H15.6667C16.5834 13.7677 17.3334 13.0248 17.3334 12.1168V2.21144C17.3334 1.30345 16.5834 0.560547 15.6667 0.560547ZM15.3334 4.0687L9.44169 7.71717C9.17502 7.88226 8.82502 7.88226 8.55835 7.71717L2.66669 4.0687C2.58313 4.02223 2.50995 3.95946 2.45159 3.88417C2.39324 3.80888 2.35091 3.72265 2.32717 3.63069C2.30343 3.53873 2.29877 3.44295 2.31348 3.34916C2.3282 3.25537 2.36197 3.1655 2.41276 3.08501C2.46354 3.00452 2.53029 2.93507 2.60896 2.88087C2.68763 2.82667 2.77658 2.78885 2.87043 2.76969C2.96429 2.75053 3.06109 2.75043 3.15498 2.7694C3.24888 2.78837 3.33791 2.82601 3.41669 2.88005L9.00002 6.33867L14.5834 2.88005C14.6621 2.82601 14.7512 2.78837 14.8451 2.7694C14.939 2.75043 15.0358 2.75053 15.1296 2.76969C15.2235 2.78885 15.3124 2.82667 15.3911 2.88087C15.4698 2.93507 15.5365 3.00452 15.5873 3.08501C15.6381 3.1655 15.6718 3.25537 15.6866 3.34916C15.7013 3.44295 15.6966 3.53873 15.6729 3.63069C15.6491 3.72265 15.6068 3.80888 15.5484 3.88417C15.4901 3.95946 15.4169 4.02223 15.3334 4.0687Z" fill="white"/>
</svg>
