<svg width="72" height="69" viewBox="0 0 72 69" fill="none" xmlns="http://www.w3.org/2000/svg">
    <g clip-path="url(#clip0)">
        <path fill-rule="evenodd" clip-rule="evenodd" d="M54.1332 3.80469L55.5846 6.87392L58.9711 7.29701L56.4817 9.6169L57.1231 12.9472L54.1332 11.3118L51.1433 12.9472L51.7851 9.6169L49.2957 7.29701L52.6821 6.87392L54.1332 3.80469Z" fill="white"/>
        <path fill-rule="evenodd" clip-rule="evenodd" d="M63.4315 14.468L64.883 17.5373L68.2691 17.9603L65.7796 20.2802L66.4214 23.6105L63.4315 21.9752L60.4417 23.6105L61.0831 20.2802L58.5936 17.9603L61.9801 17.5373L63.4315 14.468Z" fill="white"/>
        <path fill-rule="evenodd" clip-rule="evenodd" d="M67.1621 27.0137L68.6136 30.0829L72 30.506L69.5106 32.8259L70.152 36.1562L67.1621 34.5208L64.1723 36.1562L64.814 32.8259L62.3246 30.506L65.711 30.0829L67.1621 27.0137Z" fill="white"/>
        <path fill-rule="evenodd" clip-rule="evenodd" d="M64.4597 40.217L65.9112 43.2863L69.2976 43.709L66.8082 46.0289L67.4496 49.3596L64.4597 47.7238L61.4699 49.3596L62.1116 46.0289L59.6222 43.709L63.0087 43.2863L64.4597 40.217Z" fill="white"/>
        <path fill-rule="evenodd" clip-rule="evenodd" d="M30.6071 28.764C29.9609 29.5513 29.3851 30.2344 28.8629 30.9837C28.3325 31.745 27.835 32.7349 27.2877 33.3676C26.7491 33.174 27.2229 33.5222 26.7843 33.0228L26.0503 32.1025C26.1039 27.2497 25.9956 24.8221 27.5974 20.4334C29.8424 14.2826 33.856 9.58436 39.3533 6.30917C44.3044 3.35986 47.2017 3.67792 48.8379 2.96843C44.5256 1.06045 39.7499 -0.000244141 34.7249 -0.000244141C27.317 -0.000244141 20.4511 2.30438 14.8136 6.23133C14.4463 6.49538 14.1677 6.73188 14.0212 6.92182C-0.124454 31.123 16.0428 68.2361 53.1083 63.7739C56.6702 61.5613 59.7995 58.7248 62.3407 55.418C61.5096 55.5696 60.8858 55.7379 60.3018 55.9029C58.9546 56.2839 57.8184 56.6485 54.8334 56.755C50.5135 56.9092 47.9716 55.9822 46.8006 56.0202C46.8332 54.5633 33.3274 51.0091 33.2791 42.0748C33.9924 42.0141 36.1782 43.3657 39.5988 43.2103C40.7935 43.1563 42.8698 42.4584 43.684 41.5672C44.2167 40.9843 43.9419 40.7564 43.9112 40.0901C44.6721 39.7832 45.4725 39.5646 46.0865 39.1478C46.2791 39.0167 46.7383 38.5851 46.8452 38.3113C47.1263 37.5922 46.8024 37.5426 46.5749 36.9922C47.0416 35.936 49.9411 34.1442 49.6799 32.3461C49.552 31.4653 49.0981 31.4649 48.4953 30.9684C48.5849 30.6843 50.0465 28.7271 50.4832 28.0307C50.8374 27.4661 51.2243 26.8973 51.1673 26.1759C51.1081 25.4251 50.6369 25.1711 50.4449 25.0017C50.0881 24.6862 50.3227 24.9525 50.0761 24.6005C50.4007 23.2397 53.3205 19.4326 51.4451 18.4826C50.5042 18.0058 49.8635 18.7183 49.1457 18.8744C49.1663 18.4628 49.6154 16.8517 49.7829 16.3005C50.7906 12.9854 48.9837 11.4719 47.5222 16.3116C47.0529 17.8662 46.7912 18.9481 46.0467 20.357C44.8806 22.5641 42.6768 24.7141 40.8107 26.3391C36.0343 30.4992 29.92 31.8667 29.0792 35.9851C28.9472 36.6305 29.1984 36.1888 28.8472 36.6052C27.8452 36.1453 28.319 34.4939 28.7662 33.8131C29.1827 33.1788 30.2559 32.4854 30.9419 32.022C32.7745 30.7837 36.3743 28.9018 38.0653 27.561C38.4686 27.2411 38.7501 27.0407 39.1614 26.7595C39.5988 26.4605 39.8185 26.2143 40.3129 25.84C41.6628 24.8169 42.6172 23.8337 42.1475 22.0546C41.9833 21.4326 41.5998 21.3421 41.2077 21.0773C41.1785 21.0576 41.1256 21.0185 41.0866 20.9864C41.1267 19.4494 42.086 17.4215 40.6274 16.445C39.4747 16.3459 39.9486 16.7697 39.1025 17.0021C39.1362 15.4703 39.9159 14.1701 38.5743 12.9311C36.7506 13.0618 38.0124 14.7128 36.5122 18.7991C35.7771 20.801 34.8629 22.4792 33.895 24.097C32.8619 25.824 31.8531 27.2474 30.609 28.7632L30.6071 28.764ZM26.0503 32.1021C26.496 42.5668 36.5628 53.9346 46.7998 56.021C46.9385 56.3316 46.931 56.1234 46.5363 56.199C45.0946 56.5569 44.8101 56.3215 43.332 56.3856C42.6359 58.2872 41.3295 56.799 40.4527 56.6541C38.8247 59.3345 37.2979 55.6843 36.2952 54.8795C35.5515 55.2951 35.036 56.0601 33.9426 54.9897C32.9308 53.9994 31.0644 50.2125 30.8478 48.9067L30.167 49.0699C27.8463 49.0568 25.3718 47.1447 24.4043 45.8714C23.4402 44.6025 21.8006 40.6145 21.3627 39.0908C20.9661 37.7125 21.1258 34.9281 20.2082 34.4168C19.2411 33.8775 18.0261 35.3296 17.0673 35.0972C16.4206 34.6678 17.0523 33.7036 17.6041 33.2455C17.6996 31.796 17.6772 31.2887 18.5464 30.371C21.1903 27.5793 24.2285 30.2191 26.05 32.1021H26.0503ZM21.0006 31.3423C21.0006 31.0627 20.7727 30.8362 20.4912 30.8362C20.2097 30.8362 19.9818 31.0627 19.9818 31.3423C19.9818 31.622 20.2097 31.8485 20.4912 31.8485C20.7727 31.8485 21.0006 31.622 21.0006 31.3423Z" fill="white"/>
        <path fill-rule="evenodd" clip-rule="evenodd" d="M53.1076 63.7742C16.042 68.2364 -0.125202 31.1229 14.0204 6.92212C9.42429 10.7776 6.03483 14.8591 3.6856 19.0151C1.32737 23.6716 0 28.9315 0 34.4998C0 44.7417 4.49192 53.9412 11.6255 60.2599C12.8509 61.3322 14.146 62.3273 15.5004 63.2349C21.0048 66.8774 27.615 68.9999 34.7245 68.9999C41.4754 68.9999 47.7763 67.0859 53.1076 63.7742Z" fill="#CCCCCC"/>
    </g>
    <defs>
        <clipPath id="clip0">
            <rect width="72" height="69" fill="white"/>
        </clipPath>
    </defs>
</svg>