<svg width="14" height="21" viewBox="0 0 14 21" fill="none" xmlns="http://www.w3.org/2000/svg">
    <path d="M7 0.952637C3.13 0.952637 0 4.05302 0 7.88639C0 12.0169 4.42 17.7125 6.24 19.8818C6.64 20.3572 7.37 20.3572 7.77 19.8818C9.58 17.7125 14 12.0169 14 7.88639C14 4.05302 10.87 0.952637 7 0.952637ZM7 10.3627C6.33696 10.3627 5.70107 10.1018 5.23223 9.63743C4.76339 9.17302 4.5 8.54316 4.5 7.88639C4.5 7.22962 4.76339 6.59976 5.23223 6.13535C5.70107 5.67095 6.33696 5.41005 7 5.41005C7.66304 5.41005 8.29893 5.67095 8.76777 6.13535C9.23661 6.59976 9.5 7.22962 9.5 7.88639C9.5 8.54316 9.23661 9.17302 8.76777 9.63743C8.29893 10.1018 7.66304 10.3627 7 10.3627Z" fill="white"/>
</svg>
