<svg width="18" height="18" viewBox="0 0 18 18" fill="none" xmlns="http://www.w3.org/2000/svg">
    <path d="M10.4584 5.33848C12.4737 5.33848 13.3334 6.18997 13.3334 8.18627H15.25C15.25 5.1249 13.549 3.43995 10.4584 3.43995V5.33848ZM13.7378 10.5053C13.5536 10.3395 13.3116 10.2511 13.0629 10.2587C12.8142 10.2664 12.5782 10.3694 12.4047 10.5461L10.1114 12.8823C9.55944 12.7779 8.44969 12.4352 7.30736 11.3065C6.16503 10.174 5.81907 9.07194 5.71653 8.52896L8.07307 6.25642C8.25171 6.08472 8.35591 5.85091 8.3636 5.60447C8.37129 5.35803 8.28187 5.11829 8.11428 4.93599L4.57323 1.07913C4.40557 0.896263 4.17254 0.78534 3.92363 0.769919C3.67473 0.754499 3.42956 0.835797 3.24019 0.996547L1.16061 2.76313C0.994924 2.92784 0.896032 3.14706 0.882693 3.3792C0.868318 3.61652 0.594235 9.23806 4.9949 13.599C8.83398 17.4008 13.6429 17.6789 14.9673 17.6789C15.1609 17.6789 15.2797 17.6732 15.3114 17.6713C15.5457 17.6583 15.7669 17.5599 15.9324 17.3951L17.7149 15.3342C17.8773 15.1468 17.9595 14.904 17.9441 14.6575C17.9287 14.4109 17.8169 14.18 17.6324 14.0138L13.7378 10.5053Z" fill="white"/>
</svg>
